<svg width="18" height="18" viewBox="0 0 18 18" fill="none" xmlns="http://www.w3.org/2000/svg">
<g clip-path="url(#clip0_4_7)">
<path d="M13.5 1.5C13.8978 1.5 14.2794 1.65804 14.5607 1.93934C14.842 2.22064 15 2.60218 15 3V15C15 15.3978 14.842 15.7794 14.5607 16.0607C14.2794 16.342 13.8978 16.5 13.5 16.5H4.5C4.10218 16.5 3.72064 16.342 3.43934 16.0607C3.15804 15.7794 3 15.3978 3 15V3C3 2.60218 3.15804 2.22064 3.43934 1.93934C3.72064 1.65804 4.10218 1.5 4.5 1.5H13.5ZM9 9.75H6.75C6.55109 9.75 6.36032 9.82902 6.21967 9.96967C6.07902 10.1103 6 10.3011 6 10.5C6 10.6989 6.07902 10.8897 6.21967 11.0303C6.36032 11.171 6.55109 11.25 6.75 11.25H9C9.19891 11.25 9.38968 11.171 9.53033 11.0303C9.67098 10.8897 9.75 10.6989 9.75 10.5C9.75 10.3011 9.67098 10.1103 9.53033 9.96967C9.38968 9.82902 9.19891 9.75 9 9.75ZM11.25 6H6.75C6.55884 6.00021 6.37498 6.07341 6.23597 6.20464C6.09697 6.33586 6.01332 6.51521 6.00212 6.70605C5.99092 6.89688 6.05301 7.08478 6.1757 7.23137C6.29839 7.37796 6.47243 7.47217 6.66225 7.49475L6.75 7.5H11.25C11.4412 7.49979 11.625 7.42659 11.764 7.29536C11.903 7.16414 11.9867 6.98479 11.9979 6.79395C12.0091 6.60312 11.947 6.41522 11.8243 6.26863C11.7016 6.12204 11.5276 6.02783 11.3377 6.00525L11.25 6Z" fill="#D1D1D1"/>
</g>
<defs>
<clipPath id="clip0_4_7">
<rect width="18" height="18" fill="white"/>
</clipPath>
</defs>
</svg>



